<svg id="Layer_1" data-name="Layer 1" xmlns="http://www.w3.org/2000/svg" viewBox="0 0 628 579.49"><defs><style>.cls-1{fill:#99969b;}.cls-2{fill:#b1aeb2;}.cls-3{fill:#29222d;}.cls-4{fill:#5bdb85;}.cls-5{fill:#28212c;}</style></defs><path class="cls-1" d="M301,127.89a1.65,1.65,0,0,0,.09.88h-4.18a1.65,1.65,0,0,0,.09-.88Z" transform="translate(15 -127.89)"/><path class="cls-2" d="M-15,194.89l.21-.23.28.15.42,3.13-.45-.06H-15Z" transform="translate(15 -127.89)"/><path class="cls-2" d="M612.51,194.81l.28-.15.21.23v3h-.46l-.45.06Z" transform="translate(15 -127.89)"/><path class="cls-3" d="M612.51,194.81l-.42,3.13c-39.54,97-24.41,199.54-29.92,294.53L295.44,707.38c-40.19-33.1-84.81-72.57-132.31-108.2s-97.85-67.35-147-100.8c-5.9-100.58,9.34-203.27-30.26-300.44l-.42-3.13c107.9-2.69,208.93-37.8,311.42-66h4.18C403.58,157,504.61,192.11,612.51,194.81ZM66.2,477.87,299,647,531.79,477.87V230.62C476.64,215,419.76,198,362.34,183.13c-29.18-7.57-57.14-25.18-89.94-11.35-18.71,7.89-39.18,11.6-58.86,17.18L66.2,230.66Z" transform="translate(15 -127.89)"/><path class="cls-4" d="M66.2,477.87V230.66L213.54,189c19.68-5.58,40.15-9.29,58.86-17.18,32.8-13.83,60.76,3.78,89.94,11.35C419.76,198,476.64,215,531.79,230.62V477.87L299,647Zm118.57-167L299,481.18,413.22,310.86Z" transform="translate(15 -127.89)"/><path class="cls-5" d="M184.77,310.86H413.22L299,481.18Z" transform="translate(15 -127.89)"/></svg>